<?xml version="1.0" encoding="UTF-8"?>
<svg xmlns="http://www.w3.org/2000/svg" width="200" height="52" viewBox="0 0 123 32" fill="none">
	<path fill-rule="evenodd" clip-rule="evenodd" d="M15.8616 31.2039C24.6218 31.2039 31.7233 24.2187 31.7233 15.6019C31.7233 6.98523 24.6218 0 15.8616 0C13.1294 0 10.5586 0.679486 8.31421 1.87603L22.5989 15.5841L8.51783 29.4345C10.7136 30.5647 13.2117 31.2039 15.8616 31.2039Z" fill="#FF4144" />
	<path fill-rule="evenodd" clip-rule="evenodd" d="M5.08775 27.0525L16.7108 15.6198L4.92073 4.30566C1.88918 7.14734 0 11.1576 0 15.6019C0 20.1273 1.95873 24.2026 5.08775 27.0525Z" fill="#1A3B4E" />
	<path d="M109.594 11.064H106.176V27.7129H109.594V19.8046C109.594 16.8163 111.227 14.3937 114.295 14.3937C117.364 14.3937 118.996 16.8163 118.996 19.8046V27.7129H122.415V18.9722C122.415 14.6046 118.78 11.064 114.295 11.064C112.586 11.064 110.449 12.1045 109.594 13.2048V11.064Z" fill="#1A3B4E" />
	<path fill-rule="evenodd" clip-rule="evenodd" d="M100.229 13.1445C98.795 12.0994 97.013 11.064 95.0823 11.064C90.345 11.064 86.5049 14.7909 86.5049 19.3884C86.5049 23.9859 90.345 27.7129 95.0823 27.7129C97.013 27.7129 98.795 26.6774 100.229 25.6324V27.7129H103.66V11.064H100.229V13.1445ZM100.229 19.3884C100.229 16.0586 97.9244 14.3937 95.0823 14.3937C92.2402 14.3937 89.9358 16.6299 89.9358 19.3884C89.9358 22.1469 92.2402 24.3831 95.0823 24.3831C97.9244 24.3831 100.229 22.9263 100.229 19.3884Z" fill="#1A3B4E" />
	<path d="M86.9623 12.3042L86.696 12.1544C85.4264 11.4398 83.9893 11.064 82.5265 11.064C80.1301 11.064 77.9606 12.0213 76.3911 13.5689V11.064H73.0098V27.7129H76.3911V20.4358C76.3911 17.0989 79.138 14.3937 82.5265 14.3937C83.4449 14.3937 84.349 14.606 85.1664 15.0115C85.6237 14.0179 86.232 13.106 86.9623 12.3042Z" fill="#1A3B4E" />
	<path d="M59.7108 2.73975L56.3125 6.06952V24.3833L59.7108 27.7131V19.9059L66.9321 27.7131H71.18L62.2595 18.14L70.7552 11.0642H66.0826L59.7108 16.4808V2.73975Z" fill="#1A3B4E" />
	<path d="M52.8815 6.06952L56.3124 2.73975H39.1577L39.1578 27.7131H56.3125L52.8815 24.3833H42.5887V16.8913H50.7372V13.5615H42.5887V6.06952H52.8815Z" fill="#1A3B4E" />
</svg>
