<svg width="240" height="56" viewBox="0 0 240 56" fill="none" xmlns="http://www.w3.org/2000/svg">
      <path d="M60 28.4221C60 36.5362 65.1634 41.8085 73.1811 41.8085C80.9626 41.8085 85.635 36.4111 85.635 28.7081V26.7957H74.0356L70.1086 31.2281H80.2353C79.599 35.3209 76.9628 37.3226 73.1811 37.3226C68.1996 37.3226 65.1088 33.8911 65.1088 28.4221C65.1088 22.9532 68.1996 19.5038 73.1811 19.5038C76.4901 19.5038 79.0536 21.2732 79.9081 24.1685H85.126C84.1079 18.5566 79.4717 15 73.1811 15C65.1634 15 60 20.2902 60 28.4221ZM111.579 28.4221C111.579 36.4826 116.852 41.8085 124.779 41.8085C132.724 41.8085 137.978 36.4289 137.978 28.4221C137.978 20.3617 132.76 15 124.779 15C116.815 15 111.579 20.326 111.579 28.4221ZM116.688 28.4221C116.688 22.9532 119.815 19.5574 124.779 19.5574C129.724 19.5574 132.869 22.9532 132.869 28.4221C132.869 33.9268 129.76 37.2689 124.779 37.2689C119.815 37.2689 116.688 33.8732 116.688 28.4221ZM140.578 31.4783C140.578 38.1089 145.123 41.8085 152.013 41.8085C158.849 41.8085 163.377 38.1089 163.377 31.4783V15.5362H158.322V30.6919C158.322 35.0706 155.868 37.2153 151.995 37.2153C148.032 37.2153 145.614 35.1064 145.614 30.6919V15.5362H140.56V31.4783H140.578ZM167.195 41.2723H172.212V31.5677H180.503C185.594 31.5677 188.793 28.3149 188.793 23.5251C188.793 18.7174 185.575 15.5362 180.503 15.5362H167.195V41.2723ZM172.212 26.903V20.1472H179.939C182.303 20.1472 183.685 21.3268 183.685 23.5072C183.685 25.6877 182.303 26.8851 179.939 26.8851H172.212V26.903ZM191.084 31.4962H204.647V25.9736H191.084V31.4962ZM230.264 36.7149H222.137V30.5668L230.391 30.5311C232.9 30.5311 234.173 31.4783 234.173 33.5336C234.191 35.7677 232.918 36.7149 230.264 36.7149ZM230.173 20.0936C232.355 20.0936 233.482 21.023 233.482 22.8996C233.482 24.9191 232.264 25.9736 230.173 25.9736H222.137V20.0936H230.173ZM236.082 28.0289C237.627 26.7957 238.664 24.8655 238.664 22.4885C238.664 18.2706 235.918 15.5362 230.755 15.5362H217.119V41.2723H230.791C235.973 41.2723 239.282 38.3949 239.282 33.8196C239.3 31.1745 238.064 29.2443 236.082 28.0289ZM207.92 41.2723H212.974V15.5362H207.92V41.2723ZM88.2713 41.2723H93.2892V31.2281H98.6162L104.816 41.2723H110.906L104.325 30.8885C107.67 29.8519 109.943 27.1174 109.943 23.4C109.943 18.7174 106.961 15.554 101.452 15.554H88.2895V41.2723H88.2713ZM93.2892 26.7957V20.0936H100.834C103.452 20.0936 104.816 21.3447 104.816 23.4715C104.816 25.5983 103.398 26.7957 100.834 26.7957H93.2892Z" fill="black"></path>
      <path fill-rule="evenodd" clip-rule="evenodd" d="M33.0809 6.61899L37 2V8.02135C44.0944 11.3921 49 18.6239 49 27C49 38.5968 39.5968 48 28 48C26.5 48 25.0366 47.8427 23.6256 47.5436L19 53V45.9787C11.9055 42.6079 7 35.3761 7 27C7 15.4032 16.4032 6 28 6C29.752 6 31.4539 6.21462 33.0809 6.61899ZM29.1285 11.2772C28.7558 11.2507 28.3794 11.2372 28 11.2372C19.3109 11.2372 12.2542 18.2939 12.2542 26.983C12.2542 32.327 14.9235 37.0535 19 39.9007V25.2641C19 23.9327 19.4667 22.6526 20.3167 21.6627L29.1285 11.2772ZM27.7096 42.7261C27.8062 42.7279 27.903 42.7287 28 42.7287C36.6721 42.7287 43.7458 35.6721 43.7458 26.983C43.7458 20.9317 40.3232 15.6721 35.3102 13.0364L24.7833 25.4347V37.1436L31.2167 29.5653V23.2159H37V29.7189C37 31.0502 36.5333 32.3133 35.6833 33.3203L27.7096 42.7261Z" fill="black"></path>
    </svg>