<svg class="main-logo" width="136" height="32" viewBox="0 0 136 32" fill="none" xmlns="http://www.w3.org/2000/svg">
	<g clip-path="url(#clip0_236_11465)">
		<path d="M40.6529 11.8901C40.4646 11.705 40.2551 11.5428 40.0288 11.4071C39.7468 11.2447 39.445 11.1194 39.131 11.0344C38.6965 10.9183 38.2534 10.8378 37.806 10.7937C37.1728 10.7297 36.5366 10.7001 35.9002 10.7051H30.5985L29.8275 14.342H35.9035C36.1533 14.344 36.4002 14.3952 36.6302 14.4928C36.8601 14.5904 37.0687 14.7325 37.2438 14.9108C37.4189 15.0892 37.5572 15.3003 37.6508 15.5323C37.7444 15.7642 37.7915 16.0123 37.7893 16.2624C37.7912 16.5124 37.744 16.7604 37.6503 16.9921C37.5566 17.2238 37.4183 17.4348 37.2432 17.613C37.0681 17.7911 36.8596 17.933 36.6298 18.0305C36.3999 18.128 36.1532 18.1792 35.9035 18.1812H29.0149L27.1592 26.9408H31.1242L32.1972 21.8515H33.9945C34.552 21.8553 35.1092 21.8258 35.6632 21.7629C36.1044 21.713 36.5404 21.6252 36.9666 21.5005C37.3379 21.39 37.6973 21.2427 38.0396 21.0609C38.385 20.8761 38.7193 20.6713 39.0408 20.4475C39.3598 20.2155 39.65 19.9461 39.9053 19.6453C40.1828 19.3216 40.4354 18.9775 40.6612 18.6157C40.8963 18.2391 41.0978 17.8426 41.2636 17.4307C41.4267 17.0291 41.5551 16.6142 41.6475 16.1906C41.8218 15.4079 41.8326 14.5976 41.6792 13.8105C41.5381 13.0815 41.1804 12.4121 40.6529 11.8901Z" fill="white">
		</path>
		<path d="M19.161 3.00854H3.00391V14.2368H3.00558V16.2257L6.34646 10.3258L9.54383 16.6385L14.8439 4.23867L19.161 13.9894V3.00854Z" fill="#ECECEC">
		</path>
		<path d="M3.00391 24.1128V26.6048H19.161V18.1811H16.8797L14.9056 13.7202L9.83253 25.5869L6.16123 18.3382L3.68309 22.7205C3.52184 23.0076 3.28824 23.2474 3.00558 23.4158V24.1195L3.00391 24.1128Z" fill="#ECECEC">
		</path>
		<path d="M19.1609 18.1811V26.6048H3.00379V24.1128V14.2367V3.00846H19.1609V13.9893L19.3177 14.342H22.1646V1.00282C22.1646 0.736856 22.0592 0.481785 21.8714 0.29372C21.6836 0.105655 21.4289 0 21.1634 0H1.00126C0.735712 0 0.481031 0.105655 0.293258 0.29372C0.105484 0.481785 0 0.736856 0 1.00282V30.9972C0 31.2631 0.105484 31.5182 0.293258 31.7063C0.481031 31.8943 0.735712 32 1.00126 32H21.1634C21.4289 32 21.6836 31.8943 21.8714 31.7063C22.0592 31.5182 22.1646 31.2631 22.1646 30.9972V18.1811H19.1609ZM9.75397 29.7303C9.75397 29.3943 9.88725 29.072 10.1245 28.8345C10.3617 28.5969 10.6834 28.4634 11.0189 28.4634C11.1852 28.4632 11.3498 28.4958 11.5035 28.5593C11.6572 28.6229 11.7968 28.7162 11.9144 28.8339C12.0321 28.9515 12.1254 29.0913 12.1891 29.2451C12.2527 29.3989 12.2855 29.5638 12.2855 29.7303C12.2855 29.8968 12.2527 30.0617 12.1891 30.2155C12.1254 30.3693 12.0321 30.509 11.9144 30.6267C11.7968 30.7444 11.6572 30.8377 11.5035 30.9012C11.3498 30.9648 11.1852 30.9974 11.0189 30.9972C10.6834 30.9972 10.3617 30.8637 10.1245 30.6261C9.88725 30.3885 9.75397 30.0663 9.75397 29.7303Z" fill="#7C7B7B">
		</path>
		<path d="M12.2835 29.7303C12.2835 29.5638 12.2507 29.3989 12.187 29.2451C12.1234 29.0913 12.0301 28.9515 11.9124 28.8339C11.7948 28.7162 11.6551 28.6229 11.5015 28.5593C11.3478 28.4958 11.1831 28.4632 11.0169 28.4634C10.6814 28.4634 10.3597 28.5969 10.1225 28.8344C9.88524 29.072 9.75195 29.3943 9.75195 29.7303C9.75195 30.0663 9.88524 30.3885 10.1225 30.6261C10.3597 30.8637 10.6814 30.9972 11.0169 30.9972C11.1831 30.9974 11.3478 30.9648 11.5015 30.9012C11.6551 30.8377 11.7948 30.7444 11.9124 30.6267C12.0301 30.509 12.1234 30.3693 12.187 30.2155C12.2507 30.0617 12.2835 29.8968 12.2835 29.7303Z" fill="#ECECEC">
		</path>
		<path d="M37.7846 16.2623C37.7868 16.0122 37.7398 15.7641 37.6462 15.5322C37.5526 15.3002 37.4143 15.0891 37.2391 14.9107C37.064 14.7324 36.8555 14.5903 36.6255 14.4928C36.3956 14.3952 36.1487 14.3439 35.8989 14.3419H19.318L19.1611 13.9893L14.8457 4.23853L9.54397 16.6384L6.34829 10.3256L3.01074 16.2256V23.4125C3.2934 23.244 3.527 23.0043 3.68825 22.7172L6.16805 18.3415L9.83935 25.5902L14.9124 13.7235L16.8866 18.1844H35.9106C36.4133 18.1774 36.8927 17.9712 37.2439 17.6109C37.5951 17.2507 37.7895 16.7658 37.7846 16.2623Z" fill="#00AEEF">
		</path>
		<path d="M50.1551 21.4554C50.0741 21.879 49.9259 22.287 49.7162 22.6638C49.5531 22.9526 49.3381 23.2087 49.0821 23.4192C48.8603 23.5963 48.6072 23.7301 48.3361 23.8137C48.0813 23.8941 47.8157 23.9353 47.5485 23.9357C47.0656 23.9357 46.7113 23.8477 46.4854 23.6716C46.2722 23.5155 46.1181 23.2916 46.0482 23.0365C45.9815 22.7745 45.9662 22.5021 46.0032 22.2342C46.0399 21.9501 46.0799 21.7044 46.1233 21.5005L47.5485 14.7649H43.9122L42.3569 22.0521C42.2679 22.4766 42.2023 22.8532 42.16 23.1819C42.1169 23.4868 42.1018 23.7951 42.1149 24.1028C42.1297 24.3869 42.1813 24.6678 42.2685 24.9385C42.3707 25.2395 42.5026 25.5295 42.6623 25.8043C42.8407 26.1285 43.0921 26.4066 43.3965 26.6166C43.6779 26.8126 43.9837 26.9711 44.306 27.0879C44.5925 27.1929 44.8906 27.2631 45.1938 27.2968C45.4299 27.3235 45.6672 27.3381 45.9047 27.3403C46.1684 27.3392 46.4318 27.3247 46.694 27.2968C47.0052 27.2626 47.3108 27.189 47.6035 27.0779C47.937 26.951 48.2533 26.7825 48.5447 26.5764C48.8915 26.323 49.1918 26.0115 49.4325 25.6555H49.4759L49.1905 26.9492H52.6299L55.2148 14.7732H51.5785L50.1551 21.4554Z" fill="white">
		</path>
		<path d="M59.1347 10.7051L55.6953 26.9407H59.3316L62.7709 10.7051H59.1347Z" fill="white">
		</path>
		<path d="M71.8075 15.0723C71.4055 14.7937 70.9514 14.5993 70.4725 14.5007C70.0372 14.405 69.5932 14.354 69.1475 14.3486C68.516 14.3495 67.8883 14.4453 67.2852 14.6328C66.6906 14.8162 66.1278 15.0902 65.6164 15.445C65.1167 15.7923 64.6798 16.2224 64.3248 16.717C63.9694 17.2086 63.7194 17.7685 63.5905 18.3616C63.5034 18.7293 63.4994 19.1119 63.5788 19.4814C63.6558 19.81 63.8052 20.1173 64.016 20.3806C64.2346 20.6502 64.4976 20.8802 64.7937 21.0608C65.1098 21.2562 65.4454 21.4181 65.795 21.5439C66.3356 21.7628 66.7962 21.9467 67.175 22.0921C67.4879 22.2085 67.7918 22.3476 68.0845 22.5082C68.2732 22.6067 68.4349 22.7502 68.5551 22.9261C68.6 23.0133 68.627 23.1088 68.6345 23.2067C68.6419 23.3046 68.6297 23.403 68.5985 23.496C68.566 23.6455 68.4998 23.7856 68.4049 23.9056C68.3101 24.0255 68.189 24.1221 68.0511 24.188C67.7706 24.3493 67.4535 24.4362 67.13 24.4403C67.0866 24.4403 66.9998 24.4403 66.868 24.4186C66.727 24.4007 66.59 24.3594 66.4625 24.2966C66.3136 24.221 66.1887 24.1052 66.102 23.9623C65.9904 23.7664 65.9514 23.5374 65.9919 23.3155H62.3773C62.2905 24.1211 62.3673 24.783 62.6076 25.3011C62.8279 25.7947 63.1731 26.2222 63.6089 26.5413C64.0289 26.8453 64.5055 27.0619 65.0106 27.178C65.4925 27.2878 65.985 27.3439 66.4792 27.3452C67.1463 27.3455 67.81 27.2498 68.45 27.0611C69.0731 26.8796 69.6642 26.6022 70.2022 26.2387C70.7238 25.8845 71.18 25.4422 71.5506 24.9317C71.9246 24.4161 72.1825 23.8253 72.3065 23.2002C72.4511 22.5417 72.4433 22.0002 72.2831 21.5756C72.1311 21.1629 71.8705 20.7991 71.5289 20.5227C71.161 20.2315 70.7462 20.0054 70.3023 19.8541C69.8273 19.6859 69.3489 19.5288 68.8672 19.3828C68.4568 19.257 68.0613 19.0872 67.6873 18.8764C67.3536 18.6791 67.2201 18.4117 67.2918 18.0758C67.3479 17.8708 67.4642 17.6874 67.6256 17.5493C67.8655 17.3436 68.1767 17.2409 68.4917 17.2635C68.6978 17.2524 68.9037 17.2902 69.0924 17.3738C69.2104 17.4277 69.3098 17.5156 69.3778 17.6262C69.4293 17.72 69.4519 17.827 69.4429 17.9337C69.4429 18.0424 69.4329 18.1276 69.4329 18.1861H73.0024C73.0903 17.3805 73.0141 16.7292 72.7738 16.2323C72.5583 15.7678 72.2252 15.3679 71.8075 15.0723Z" fill="white">
		</path>
		<path d="M86.3528 16.2792C85.8975 15.6717 85.2997 15.186 84.6122 14.8652C83.8433 14.51 83.0041 14.334 82.1575 14.3504C81.2396 14.3501 80.3312 14.5366 79.4874 14.8986C78.6412 15.2533 77.8574 15.742 77.1662 16.346C76.4769 16.9479 75.8822 17.6506 75.4023 18.4302C74.9264 19.1836 74.5874 20.0154 74.401 20.8871C74.2118 21.7203 74.2038 22.5844 74.3777 23.4209C74.5369 24.1682 74.8626 24.8698 75.3305 25.4734C75.7976 26.0632 76.3982 26.533 77.0827 26.8439C77.8291 27.1837 78.6409 27.3549 79.4607 27.3453C80.0999 27.343 80.7355 27.249 81.3481 27.0662C81.9891 26.8779 82.6007 26.6012 83.1654 26.2439C84.4392 25.4661 85.5123 24.3988 86.2977 23.1284H82.5747C82.2609 23.4438 81.9075 23.7168 81.5233 23.9407C81.0931 24.174 80.609 24.2893 80.1199 24.275C79.481 24.3009 78.8556 24.0856 78.3677 23.6716C77.9149 23.2683 77.7108 22.7011 77.7553 21.9702H86.8668C86.9246 21.8253 86.9763 21.6899 87.0219 21.564C87.0653 21.4404 87.1154 21.2548 87.1755 21.0058C87.3629 20.151 87.3844 19.2681 87.2389 18.4052C87.1147 17.6365 86.8111 16.9081 86.3528 16.2792ZM78.3243 19.5032C78.423 19.2828 78.5443 19.0733 78.6864 18.8782C78.8699 18.6202 79.0872 18.388 79.3322 18.1879C79.6153 17.9564 79.9329 17.7708 80.2734 17.638C80.6724 17.4863 81.0966 17.412 81.5233 17.419C81.9181 17.405 82.311 17.4798 82.6731 17.638C82.948 17.7659 83.1909 17.9538 83.384 18.1879C83.5511 18.3904 83.6744 18.6254 83.7461 18.8782C83.8058 19.0814 83.8389 19.2915 83.8446 19.5032H78.3243Z" fill="white">
		</path>
		<path d="M103.909 14.7649L100.492 22.3328H100.448L100.031 14.7649H96.9657L93.3729 22.3328H93.3295L93.1109 14.7649H89.3428L90.4809 26.9408H93.8551L97.5565 19.0653H97.6015L97.9737 26.9408H101.346L107.656 14.7649H103.909Z" fill="white">
		</path>
		<path d="M117.75 16.0584H117.707C117.621 15.8507 117.509 15.6551 117.373 15.4768C117.205 15.2605 117.001 15.075 116.77 14.9286C116.478 14.7451 116.16 14.6049 115.828 14.5124C115.403 14.3947 114.964 14.3384 114.524 14.3453C113.697 14.3469 112.877 14.4987 112.105 14.7932C111.305 15.1012 110.563 15.5401 109.907 16.0919C109.21 16.676 108.611 17.3684 108.133 18.1426C107.619 18.9733 107.252 19.8864 107.048 20.8419C106.861 21.6583 106.82 22.5016 106.928 23.3322C107.022 24.0709 107.281 24.7791 107.684 25.4047C108.089 26.0145 108.648 26.5063 109.304 26.8304C110.076 27.2008 110.924 27.3813 111.779 27.3569C112.143 27.3563 112.506 27.3233 112.864 27.2583C113.236 27.1926 113.6 27.0861 113.949 26.9407C114.29 26.7986 114.614 26.6162 114.913 26.3975C115.21 26.1823 115.472 25.923 115.691 25.6287H115.734L115.45 26.9457H119.085L121.67 14.7698H118.034L117.75 16.0584ZM116.749 20.8419C116.672 21.1855 116.551 21.5175 116.388 21.8297C116.198 22.2054 115.95 22.5493 115.654 22.8492C115.333 23.1739 114.959 23.4413 114.548 23.6398C114.078 23.8595 113.564 23.9682 113.046 23.9573C112.58 23.9781 112.118 23.8681 111.711 23.6398C111.393 23.4454 111.129 23.1734 110.945 22.8492C110.771 22.5413 110.666 22.1991 110.638 21.8464C110.607 21.5239 110.621 21.1987 110.681 20.8803C110.764 20.5044 110.901 20.1425 111.087 19.8056C111.289 19.4363 111.543 19.0985 111.843 18.8028C112.158 18.4903 112.525 18.2342 112.927 18.0457C113.37 17.8428 113.852 17.7417 114.339 17.7499C114.782 17.735 115.222 17.8291 115.621 18.024C115.948 18.1924 116.227 18.4415 116.432 18.7477C116.629 19.0491 116.753 19.3925 116.794 19.7505C116.837 20.1144 116.821 20.4828 116.749 20.8419Z" fill="white">
		</path>
		<path d="M132.145 14.7649L128.333 21.8298H128.29L127.349 14.7649H123.471L125.53 26.3257L122.616 30.9989H126.471L136 14.7649H132.145Z" fill="white">
		</path>
	</g>
	<defs>
		<clipPath id="clip0_236_11465">
			<rect width="136" height="32" fill="white">
			</rect>
		</clipPath>
	</defs>
</svg>
