<?xml version="1.0" encoding="UTF-8"?>
<!-- Generator: Adobe Illustrator 16.0.0, SVG Export Plug-In . SVG Version: 6.00 Build 0)  -->
<!DOCTYPE svg PUBLIC "-//W3C//DTD SVG 1.1//EN" "http://www.w3.org/Graphics/SVG/1.1/DTD/svg11.dtd">
<svg version="1.1" id="Layer_1" xmlns="http://www.w3.org/2000/svg" xmlns:xlink="http://www.w3.org/1999/xlink" x="0px" y="0px" width="200px" height="63px" viewBox="0 0 165.5 52.408" enable-background="new 0 0 165.5 52.408" xml:space="preserve">
<path fill="#F37324" d="M79.815,4.6L46.32,20.579l-0.016,1.144l33.499,15.858v-4.813l-8.565-3.628  c1.157-2.546,1.781-5.304,1.831-8.1c-0.026-2.699-0.654-5.357-1.842-7.781l8.589-3.867V4.6z M54.933,21.052l12.137-5.84  c0.835,1.832,1.279,3.816,1.309,5.829c0,2.676-0.86,5.223-1.266,6.298L54.933,21.052z"/>
<polygon fill="#101928" points="89.878,33.581 89.878,4.334 85.551,4.334 85.538,37.842 102.458,37.842 102.458,33.581 "/>
<polygon fill="#101928" points="110.948,33.581 110.948,4.334 106.609,4.334 106.609,37.842 123.526,37.842 123.526,33.581 "/>
<rect x="127.461" y="10.046" fill="#101928" width="4.338" height="27.802"/>
<rect x="127.452" y="4.353" fill="#F37324" width="4.334" height="4.664"/>
<polygon fill="#101928" points="151.149,20.547 161.167,4.334 156.077,4.334 148.604,16.435 141.098,4.334 136.001,4.334   146.057,20.551 135.373,37.842 140.465,37.842 148.608,24.665 156.782,37.842 161.877,37.842 "/>
<polygon fill="#101928" points="46.32,4.375 46.301,4.375 41.821,4.375 41.799,4.375 40.073,10.489 35.501,26.454 26.768,4.375   26.693,4.375 25.313,4.375 25.235,4.375 16.506,26.427 10.201,4.375 10.192,4.375 5.706,4.375 5.685,4.375 8.337,13.569   15.292,37.883 15.344,37.883 15.348,37.896 16.255,37.883 16.723,37.883 26.002,14.413 35.29,37.883 35.742,37.883 36.648,37.896   36.652,37.883 36.721,37.883 "/>
<path fill="#101928" d="M10.115,47.925c-0.214,0.302-0.499,0.541-0.831,0.699c-0.322,0.142-0.672,0.213-1.022,0.213  c-0.358,0-0.713-0.063-1.045-0.194c-0.307-0.122-0.584-0.307-0.814-0.546c-0.231-0.234-0.411-0.519-0.529-0.831  c-0.128-0.333-0.193-0.689-0.189-1.051c-0.004-0.356,0.062-0.713,0.189-1.048c0.118-0.311,0.298-0.592,0.529-0.825  c0.23-0.241,0.507-0.426,0.814-0.552c0.332-0.135,0.687-0.197,1.045-0.197c0.323,0,0.646,0.063,0.948,0.18  c0.304,0.135,0.569,0.344,0.77,0.604l-0.382,0.317c-0.142-0.227-0.35-0.401-0.594-0.511c-0.232-0.107-0.487-0.167-0.742-0.167  c-0.3,0-0.601,0.055-0.877,0.171c-0.251,0.109-0.479,0.263-0.666,0.466c-0.187,0.203-0.33,0.438-0.422,0.7  c-0.194,0.55-0.194,1.158,0,1.715c0.092,0.261,0.236,0.496,0.422,0.699c0.188,0.198,0.415,0.356,0.666,0.465  c0.277,0.113,0.578,0.171,0.877,0.167c0.133,0,0.264-0.015,0.395-0.045c0.138-0.032,0.271-0.077,0.397-0.14  c0.133-0.063,0.257-0.145,0.37-0.245c0.12-0.099,0.223-0.216,0.308-0.347L10.115,47.925z"/>
<path fill="#101928" d="M14.904,46.554l-1.833-2.834h0.557l1.508,2.364l1.541-2.364h0.518l-1.833,2.834v2.148h-0.458V46.554z"/>
<path fill="#101928" d="M20.629,43.72h1.432c0.19,0,0.382,0.017,0.572,0.044c0.185,0.026,0.361,0.09,0.519,0.189  c0.156,0.101,0.287,0.234,0.375,0.402c0.104,0.212,0.154,0.446,0.142,0.681c0.004,0.239-0.075,0.475-0.226,0.659  c-0.169,0.199-0.406,0.334-0.666,0.375v0.014c0.156,0.008,0.307,0.054,0.449,0.117c0.133,0.059,0.253,0.146,0.353,0.253  s0.178,0.234,0.228,0.378c0.13,0.389,0.102,0.813-0.081,1.179c-0.104,0.172-0.249,0.321-0.42,0.43  c-0.165,0.099-0.35,0.171-0.539,0.207c-0.181,0.036-0.364,0.055-0.549,0.055h-1.588V43.72z M21.096,45.871h0.965  c0.195,0.006,0.389-0.021,0.572-0.084c0.13-0.051,0.25-0.124,0.352-0.219c0.079-0.071,0.136-0.167,0.169-0.27  c0.027-0.087,0.041-0.173,0.043-0.263c0.004-0.153-0.025-0.298-0.088-0.433c-0.054-0.117-0.135-0.217-0.235-0.289  c-0.106-0.072-0.223-0.117-0.347-0.144c-0.135-0.027-0.275-0.046-0.415-0.046h-1.027L21.096,45.871z M21.096,48.283h1.063  c0.225,0.003,0.448-0.029,0.657-0.101c0.15-0.056,0.283-0.139,0.391-0.258c0.083-0.085,0.145-0.193,0.181-0.307  c0.029-0.1,0.045-0.203,0.045-0.308c0.004-0.162-0.032-0.323-0.106-0.47c-0.068-0.126-0.167-0.237-0.287-0.319  c-0.115-0.085-0.246-0.14-0.384-0.175c-0.14-0.042-0.284-0.06-0.431-0.06h-1.146L21.096,48.283z"/>
<path fill="#101928" d="M27.896,43.72h3.039v0.418h-2.574v1.783h2.421v0.426h-2.421v1.944h2.697v0.42h-3.151L27.896,43.72z"/>
<path fill="#101928" d="M34.889,43.72h1.31c0.064,0,0.156,0,0.268,0c0.125,0.008,0.246,0.017,0.368,0.044  c0.135,0.023,0.271,0.063,0.4,0.108c0.135,0.055,0.258,0.131,0.368,0.226c0.109,0.108,0.201,0.234,0.266,0.376  c0.074,0.17,0.109,0.359,0.105,0.544c0.007,0.209-0.033,0.412-0.125,0.597c-0.073,0.145-0.18,0.271-0.309,0.374  c-0.123,0.096-0.261,0.167-0.413,0.213c-0.141,0.045-0.282,0.08-0.429,0.104l1.449,2.392h-0.526l-1.404-2.365h-0.859v2.365h-0.462  L34.889,43.72z M35.354,45.913h0.983c0.203,0.008,0.404-0.024,0.596-0.091c0.136-0.045,0.256-0.127,0.355-0.227  c0.081-0.081,0.141-0.18,0.176-0.288c0.027-0.09,0.042-0.19,0.045-0.284c-0.002-0.096-0.018-0.194-0.045-0.285  c-0.035-0.106-0.095-0.207-0.176-0.288c-0.1-0.1-0.222-0.177-0.355-0.227c-0.192-0.063-0.393-0.099-0.596-0.089h-0.983V45.913z"/>
<path fill="#101928" d="M42.016,47.781c0.108,0.197,0.275,0.364,0.477,0.473c0.206,0.104,0.434,0.158,0.664,0.154  c0.149,0.004,0.298-0.023,0.438-0.072c0.131-0.04,0.25-0.109,0.354-0.194c0.102-0.09,0.183-0.19,0.241-0.307  c0.059-0.127,0.091-0.268,0.088-0.406c0.007-0.154-0.032-0.298-0.11-0.429c-0.072-0.117-0.169-0.217-0.287-0.285  c-0.131-0.08-0.269-0.145-0.413-0.189l-0.47-0.152c-0.159-0.054-0.318-0.109-0.471-0.182c-0.152-0.063-0.29-0.147-0.413-0.252  c-0.125-0.113-0.221-0.249-0.287-0.397c-0.079-0.188-0.115-0.388-0.108-0.59c-0.005-0.204,0.04-0.407,0.128-0.592  c0.084-0.168,0.205-0.316,0.352-0.43c0.154-0.116,0.328-0.203,0.511-0.264c0.195-0.057,0.401-0.083,0.607-0.083  c0.258-0.006,0.516,0.045,0.755,0.144c0.242,0.1,0.452,0.267,0.608,0.479l-0.402,0.284c-0.215-0.319-0.584-0.51-0.973-0.492  c-0.146,0-0.291,0.019-0.428,0.064c-0.128,0.035-0.251,0.09-0.358,0.171c-0.1,0.077-0.183,0.171-0.243,0.288  c-0.063,0.128-0.093,0.271-0.09,0.416c-0.014,0.206,0.054,0.416,0.189,0.573c0.134,0.139,0.296,0.248,0.475,0.32  c0.202,0.082,0.411,0.145,0.621,0.198c0.213,0.06,0.421,0.136,0.617,0.234c0.19,0.101,0.353,0.244,0.478,0.416  c0.139,0.217,0.208,0.469,0.191,0.73c0.004,0.208-0.038,0.407-0.127,0.597c-0.081,0.171-0.198,0.32-0.342,0.441  c-0.146,0.118-0.314,0.212-0.494,0.271c-0.188,0.059-0.38,0.09-0.574,0.09c-0.312,0-0.62-0.054-0.911-0.171  c-0.284-0.122-0.531-0.32-0.709-0.574L42.016,47.781z"/>
<path fill="#101928" d="M48.615,43.72h3.049v0.418h-2.576v1.783h2.421v0.426h-2.421v1.944h2.696v0.42h-3.149L48.615,43.72z"/>
<path fill="#101928" d="M59.714,47.925c-0.214,0.302-0.5,0.541-0.831,0.699c-0.322,0.142-0.673,0.213-1.023,0.213  c-0.359,0-0.711-0.063-1.044-0.194c-0.308-0.122-0.583-0.307-0.814-0.546c-0.229-0.234-0.409-0.519-0.525-0.831  c-0.136-0.333-0.206-0.695-0.204-1.056c-0.003-0.36,0.061-0.713,0.192-1.046c0.116-0.308,0.298-0.593,0.525-0.832  c0.23-0.234,0.508-0.419,0.815-0.545c0.331-0.132,0.686-0.203,1.044-0.194c0.325-0.005,0.646,0.054,0.948,0.18  c0.306,0.126,0.571,0.335,0.771,0.596l-0.382,0.32c-0.144-0.225-0.351-0.401-0.596-0.509c-0.231-0.108-0.487-0.163-0.741-0.163  c-0.303-0.01-0.6,0.05-0.877,0.163c-0.25,0.107-0.477,0.266-0.665,0.47c-0.185,0.197-0.329,0.437-0.425,0.693  c-0.188,0.561-0.188,1.165,0,1.72c0.096,0.258,0.24,0.492,0.425,0.7c0.188,0.198,0.415,0.353,0.665,0.461  c0.277,0.117,0.574,0.171,0.877,0.171c0.135,0,0.263-0.019,0.396-0.046c0.136-0.03,0.271-0.08,0.397-0.144  c0.132-0.063,0.256-0.144,0.37-0.235c0.12-0.104,0.227-0.221,0.312-0.352L59.714,47.925z"/>
<path fill="#101928" d="M66.923,46.796c0.004,0.257-0.03,0.515-0.09,0.769c-0.055,0.234-0.162,0.451-0.308,0.645  c-0.149,0.194-0.346,0.349-0.572,0.451c-0.551,0.227-1.166,0.227-1.717,0c-0.224-0.103-0.423-0.257-0.575-0.451  c-0.143-0.193-0.248-0.41-0.305-0.645c-0.06-0.254-0.09-0.512-0.09-0.769V43.72h0.461v2.955c0.002,0.195,0.017,0.384,0.051,0.573  c0.031,0.199,0.097,0.397,0.192,0.573c0.101,0.178,0.242,0.32,0.413,0.43c0.436,0.225,0.957,0.225,1.397,0  c0.171-0.109,0.312-0.252,0.41-0.43c0.098-0.176,0.165-0.374,0.196-0.573c0.028-0.189,0.047-0.378,0.047-0.573V43.72h0.466  L66.923,46.796z"/>
<path fill="#101928" d="M71.018,43.72h1.312c0.065,0,0.156,0,0.264,0c0.125,0.008,0.248,0.017,0.37,0.044  c0.134,0.023,0.269,0.06,0.397,0.108c0.137,0.055,0.263,0.126,0.37,0.226c0.113,0.108,0.205,0.234,0.27,0.376  c0.147,0.364,0.141,0.78-0.02,1.141c-0.075,0.149-0.182,0.28-0.312,0.38c-0.122,0.095-0.259,0.166-0.409,0.211  c-0.141,0.046-0.284,0.076-0.432,0.104l1.449,2.393h-0.526l-1.403-2.366h-0.856v2.366h-0.474V43.72z M71.485,45.913h0.984  c0.201,0.008,0.404-0.024,0.594-0.091c0.137-0.045,0.256-0.127,0.357-0.227c0.081-0.081,0.139-0.18,0.171-0.288  c0.03-0.09,0.045-0.186,0.045-0.284c0-0.096-0.015-0.194-0.045-0.285c-0.032-0.106-0.092-0.207-0.171-0.288  c-0.101-0.1-0.224-0.177-0.357-0.227c-0.189-0.063-0.393-0.099-0.594-0.089h-0.984V45.913z"/>
<path fill="#101928" d="M78.009,43.72h0.453v4.982h-0.464L78.009,43.72z"/>
<path fill="#101928" d="M83.763,44.138h-1.717V43.72h3.874v0.418h-1.703v4.564h-0.466L83.763,44.138z"/>
<path fill="#101928" d="M90.625,46.554l-1.833-2.834h0.551l1.506,2.364l1.544-2.364h0.519l-1.828,2.834v2.148h-0.468L90.625,46.554z  "/>
<path fill="#101928" d="M101.159,47.781c0.106,0.197,0.269,0.36,0.472,0.473c0.205,0.104,0.438,0.158,0.668,0.154  c0.15,0.004,0.293-0.023,0.434-0.072c0.132-0.04,0.252-0.109,0.356-0.194c0.105-0.085,0.186-0.19,0.239-0.307  c0.06-0.127,0.096-0.268,0.09-0.406c0.006-0.154-0.03-0.298-0.113-0.429c-0.073-0.117-0.167-0.213-0.28-0.285  c-0.134-0.08-0.271-0.145-0.414-0.189l-0.47-0.152c-0.17-0.045-0.333-0.101-0.487-0.163c-0.154-0.063-0.289-0.153-0.415-0.258  c-0.122-0.111-0.218-0.248-0.29-0.401c-0.071-0.185-0.107-0.387-0.107-0.586c0-0.208,0.044-0.408,0.135-0.591  c0.081-0.168,0.203-0.312,0.352-0.431c0.154-0.116,0.325-0.207,0.506-0.261c0.196-0.054,0.402-0.086,0.604-0.09  c0.261,0,0.523,0.05,0.758,0.149c0.244,0.104,0.451,0.265,0.605,0.481l-0.402,0.285c-0.213-0.321-0.583-0.511-0.97-0.492  c-0.145,0-0.29,0.019-0.429,0.06c-0.131,0.035-0.248,0.095-0.357,0.175c-0.101,0.078-0.186,0.172-0.244,0.288  c-0.064,0.128-0.1,0.271-0.091,0.416c-0.018,0.209,0.055,0.415,0.19,0.574c0.134,0.139,0.299,0.248,0.474,0.32  c0.203,0.081,0.41,0.145,0.617,0.197c0.218,0.06,0.425,0.137,0.624,0.234c0.19,0.101,0.352,0.244,0.474,0.416  c0.139,0.217,0.203,0.469,0.189,0.731c0.005,0.202-0.04,0.406-0.125,0.597c-0.077,0.171-0.195,0.32-0.34,0.44  c-0.15,0.119-0.316,0.213-0.502,0.271c-0.184,0.059-0.374,0.091-0.572,0.091c-0.308,0-0.618-0.054-0.906-0.171  c-0.284-0.122-0.534-0.321-0.709-0.578L101.159,47.781z"/>
<path fill="#101928" d="M107.757,43.72h0.459v4.982h-0.459V43.72z"/>
<path fill="#101928" d="M112.351,43.72h0.705l1.813,4.179l1.813-4.179h0.665v4.982h-0.466v-4.396h-0.012l-1.899,4.396h-0.207  l-1.929-4.396h-0.013v4.396h-0.47V43.72z"/>
<path fill="#101928" d="M121.483,43.72h1.429c0.181,0,0.372,0.017,0.547,0.062c0.185,0.036,0.36,0.104,0.519,0.203  c0.162,0.104,0.296,0.239,0.388,0.408c0.109,0.193,0.163,0.418,0.154,0.644c0,0.199-0.04,0.394-0.125,0.569  c-0.077,0.163-0.19,0.298-0.331,0.405c-0.139,0.108-0.304,0.19-0.477,0.235c-0.186,0.055-0.38,0.082-0.575,0.082h-1.074v2.365h-0.47  L121.483,43.72z M121.946,45.913h1.058c0.13,0,0.263-0.015,0.389-0.046c0.116-0.026,0.233-0.077,0.334-0.143  c0.102-0.075,0.183-0.164,0.243-0.273c0.064-0.13,0.094-0.27,0.09-0.415c0.009-0.145-0.026-0.284-0.098-0.41  c-0.056-0.113-0.141-0.212-0.246-0.284c-0.103-0.078-0.224-0.132-0.346-0.162c-0.131-0.032-0.263-0.045-0.393-0.045h-1.03V45.913z"/>
<path fill="#101928" d="M128.337,43.72h0.469v4.563h2.335v0.419h-2.789L128.337,43.72z"/>
<path fill="#101928" d="M134.679,43.72h0.47v4.982h-0.465L134.679,43.72z"/>
<path fill="#101928" d="M139.327,43.72h2.979v0.418h-2.522v1.783h2.347v0.426h-2.347v2.364h-0.458V43.72z"/>
<path fill="#101928" d="M146.057,43.72h0.466v4.982h-0.466V43.72z"/>
<path fill="#101928" d="M150.708,43.72h3.05v0.418h-2.579v1.783h2.425v0.426h-2.425v1.944h2.696v0.42h-3.146L150.708,43.72z"/>
<path fill="#101928" d="M157.639,43.72h1.544c0.37-0.01,0.739,0.044,1.092,0.157c0.271,0.085,0.527,0.224,0.75,0.402  c0.188,0.152,0.353,0.339,0.479,0.55c0.104,0.18,0.189,0.37,0.252,0.568c0.051,0.163,0.081,0.33,0.098,0.497  c0.016,0.149,0.024,0.252,0.024,0.311s0,0.168-0.024,0.316c-0.017,0.167-0.054,0.335-0.098,0.492  c-0.063,0.203-0.147,0.396-0.252,0.578c-0.126,0.207-0.291,0.387-0.479,0.541c-0.223,0.181-0.475,0.315-0.75,0.406  c-0.353,0.118-0.722,0.166-1.092,0.157h-1.544V43.72z M158.1,48.283h0.962c0.31,0.003,0.617-0.043,0.92-0.123  c0.276-0.077,0.528-0.209,0.744-0.379c0.218-0.171,0.388-0.394,0.506-0.642c0.243-0.596,0.243-1.263,0-1.854  c-0.118-0.249-0.288-0.475-0.506-0.646c-0.216-0.172-0.468-0.303-0.744-0.379c-0.303-0.081-0.61-0.123-0.92-0.123H158.1V48.283z"/>
</svg>